<svg width="24" height="24" viewBox="0 0 24 24" fill="none" xmlns="http://www.w3.org/2000/svg">
<g clip-path="url(#clip0_1_2677)">
<path d="M19.375 15.103C20.0239 13.5613 20.1732 11.855 19.8021 10.224C19.431 8.59303 18.558 7.11938 17.3059 6.01024C16.0539 4.9011 14.4857 4.21225 12.8218 4.04055C11.158 3.86884 9.48219 4.22292 8.03001 5.05299L7.03801 3.31599C8.55564 2.4486 10.2742 1.99435 12.0222 1.99856C13.7702 2.00278 15.4866 2.4653 17 3.33999C21.49 5.93199 23.21 11.482 21.117 16.11L22.459 16.884L18.294 19.098L18.129 14.384L19.375 15.103ZM4.62501 8.89699C3.97615 10.4387 3.82679 12.145 4.19793 13.776C4.56906 15.4069 5.44202 16.8806 6.69408 17.9897C7.94614 19.0989 9.51433 19.7877 11.1782 19.9594C12.842 20.1311 14.5178 19.7771 15.97 18.947L16.962 20.684C15.4444 21.5514 13.7258 22.0056 11.9778 22.0014C10.2298 21.9972 8.51344 21.5347 7.00001 20.66C2.51001 18.068 0.790009 12.518 2.88301 7.88999L1.54001 7.11699L5.70501 4.90299L5.87001 9.61699L4.62401 8.89799L4.62501 8.89699ZM8.50001 14H14C14.1326 14 14.2598 13.9473 14.3536 13.8535C14.4473 13.7598 14.5 13.6326 14.5 13.5C14.5 13.3674 14.4473 13.2402 14.3536 13.1464C14.2598 13.0527 14.1326 13 14 13H10C9.33697 13 8.70108 12.7366 8.23224 12.2678C7.7634 11.7989 7.50001 11.163 7.50001 10.5C7.50001 9.83694 7.7634 9.20106 8.23224 8.73222C8.70108 8.26338 9.33697 7.99999 10 7.99999H11V6.99999H13V7.99999H15.5V9.99999H10C9.8674 9.99999 9.74022 10.0527 9.64645 10.1464C9.55269 10.2402 9.50001 10.3674 9.50001 10.5C9.50001 10.6326 9.55269 10.7598 9.64645 10.8535C9.74022 10.9473 9.8674 11 10 11H14C14.663 11 15.2989 11.2634 15.7678 11.7322C16.2366 12.2011 16.5 12.8369 16.5 13.5C16.5 14.163 16.2366 14.7989 15.7678 15.2678C15.2989 15.7366 14.663 16 14 16H13V17H11V16H8.50001V14Z" fill="#03053D"/>
</g>
<defs>
<clipPath id="clip0_1_2677">
<rect width="24" height="24" fill="white"/>
</clipPath>
</defs>
</svg>
