<svg width="24" height="24" viewBox="0 0 24 24" fill="none" xmlns="http://www.w3.org/2000/svg">
<g clip-path="url(#clip0_1_5792)">
<path d="M22 11V21C22 21.2652 21.8946 21.5196 21.7071 21.7071C21.5196 21.8946 21.2652 22 21 22H20C19.7348 22 19.4804 21.8946 19.2929 21.7071C19.1054 21.5196 19 21.2652 19 21V20H5V21C5 21.2652 4.89464 21.5196 4.70711 21.7071C4.51957 21.8946 4.26522 22 4 22H3C2.73478 22 2.48043 21.8946 2.29289 21.7071C2.10536 21.5196 2 21.2652 2 21V11L4.447 6.106C4.61313 5.77353 4.86862 5.49394 5.1848 5.29858C5.50098 5.10322 5.86534 4.99983 6.237 5H9V3H15V5H17.764C18.1355 5.00001 18.4996 5.10349 18.8156 5.29884C19.1316 5.49419 19.3869 5.77369 19.553 6.106L22 11ZM20 13H4V18H20V13ZM4.236 11H19.764L17.764 7H6.236L4.236 11ZM6.5 17C6.10218 17 5.72064 16.842 5.43934 16.5607C5.15804 16.2794 5 15.8978 5 15.5C5 15.1022 5.15804 14.7206 5.43934 14.4393C5.72064 14.158 6.10218 14 6.5 14C6.89782 14 7.27936 14.158 7.56066 14.4393C7.84196 14.7206 8 15.1022 8 15.5C8 15.8978 7.84196 16.2794 7.56066 16.5607C7.27936 16.842 6.89782 17 6.5 17ZM17.5 17C17.1022 17 16.7206 16.842 16.4393 16.5607C16.158 16.2794 16 15.8978 16 15.5C16 15.1022 16.158 14.7206 16.4393 14.4393C16.7206 14.158 17.1022 14 17.5 14C17.8978 14 18.2794 14.158 18.5607 14.4393C18.842 14.7206 19 15.1022 19 15.5C19 15.8978 18.842 16.2794 18.5607 16.5607C18.2794 16.842 17.8978 17 17.5 17Z" fill="#03053D"/>
</g>
<defs>
<clipPath id="clip0_1_5792">
<rect width="24" height="24" fill="white"/>
</clipPath>
</defs>
</svg>
