<svg width="90" height="90" viewBox="0 0 90 90" fill="none" xmlns="http://www.w3.org/2000/svg">
<path d="M88.9688 44.832C88.9688 69.317 69.1633 89.1641 44.7344 89.1641C20.3054 89.1641 0.5 69.317 0.5 44.832C0.5 20.3471 20.3054 0.5 44.7344 0.5C69.1633 0.5 88.9688 20.3471 88.9688 44.832Z" stroke="#BE9E51"/>
<path d="M56.48 38.664V54.536C56.48 60.936 56.8 64.776 57.44 66.056C57.6533 66.568 58.016 67.016 58.528 67.4C59.04 67.784 59.5947 68.0187 60.192 68.104C60.832 68.1893 61.664 68.232 62.688 68.232L62.816 69H45.536L45.664 68.232C46.7307 68.232 47.5627 68.1893 48.16 68.104C48.8 68.0187 49.376 67.784 49.888 67.4C50.4427 67.016 50.8267 66.5893 51.04 66.12C51.296 65.608 51.5093 64.776 51.68 63.624C51.8933 62.1307 52 59.1013 52 54.536V47.496H26.08V54.536C26.08 59.1013 26.208 62.216 26.464 63.88C26.7627 65.544 27.168 66.5893 27.68 67.016C28.6613 67.8267 30.2187 68.232 32.352 68.232L32.48 69H15.2L15.328 68.232C16.3947 68.232 17.2267 68.1893 17.824 68.104C18.4213 68.0187 18.976 67.784 19.488 67.4C20.0427 67.016 20.4267 66.5893 20.64 66.12C20.896 65.608 21.1093 64.776 21.28 63.624C21.4933 62.1307 21.6 59.1013 21.6 54.536V38.664C21.6 34.2267 21.472 31.1333 21.216 29.384C20.96 27.6347 20.576 26.5467 20.064 26.12C19.04 25.3093 17.4613 24.904 15.328 24.904L15.2 24.2H32.48L32.352 24.904C30.2187 24.904 28.6613 25.3093 27.68 26.12C26.6133 27.016 26.08 31.1973 26.08 38.664V45.832H52V38.664C52 32.3067 51.68 28.4453 51.04 27.08C50.8267 26.568 50.4427 26.12 49.888 25.736C49.376 25.352 48.8 25.1173 48.16 25.032C47.5627 24.9467 46.7307 24.904 45.664 24.904L45.536 24.2H62.816L62.688 24.904C61.664 24.904 60.832 24.9467 60.192 25.032C59.5947 25.1173 59.04 25.352 58.528 25.736C58.016 26.12 57.632 26.568 57.376 27.08C57.1627 27.592 56.9707 28.424 56.8 29.576C56.5867 31.4533 56.48 34.4827 56.48 38.664Z" fill="#BE9E51"/>
<path d="M75.1588 24.2448V33.4608L74.4548 33.3328C74.4548 30.5168 72.9402 28.5541 69.9108 27.4448C66.9242 26.2928 62.3588 25.7168 56.2148 25.7168V45.8768C58.6895 45.7914 60.6095 45.6634 61.9748 45.4928C63.3828 45.2794 64.4495 44.8741 65.1748 44.2768C65.9002 43.6368 66.3482 42.9541 66.5188 42.2288C66.6895 41.5034 66.7748 40.3941 66.7748 38.9008L67.5428 38.7728V54.3248L66.7748 54.1968C66.7748 52.2341 66.5615 50.8261 66.1348 49.9728C65.7508 49.1195 64.8122 48.4795 63.3188 48.0528C61.8682 47.6261 59.5002 47.3701 56.2148 47.2848V54.5808C56.2148 60.6395 56.4922 64.1808 57.0468 65.2048C57.3028 65.7595 57.5802 66.2928 57.8788 66.8048C58.2202 67.2741 58.7108 67.5941 59.3508 67.7648C60.7162 68.1061 62.3802 68.2768 64.3428 68.2768L64.4708 69.0448H45.2708L45.3988 68.2768C47.5322 68.2768 49.0895 67.8715 50.0708 67.0608C51.1375 66.1648 51.6708 62.0048 51.6708 54.5808V38.7088C51.6708 34.1434 51.5215 31.0288 51.2228 29.3648C50.9668 27.6581 50.5828 26.5914 50.0708 26.1648C49.0895 25.3541 47.5322 24.9488 45.3988 24.9488L45.2708 24.2448H75.1588Z" fill="#BE9E51"/>
</svg>
