<svg width="24" height="24" viewBox="0 0 24 24" fill="none" xmlns="http://www.w3.org/2000/svg">
<g clip-path="url(#clip0_1_88)">
<path d="M19 19.0001V9.79908L12 4.27708L5 9.79908V19.0001H19ZM21 20.0001C21 20.2653 20.8946 20.5197 20.7071 20.7072C20.5196 20.8947 20.2652 21.0001 20 21.0001H4C3.73478 21.0001 3.48043 20.8947 3.29289 20.7072C3.10536 20.5197 3 20.2653 3 20.0001V9.31408C2.99994 9.16303 3.0341 9.01393 3.09991 8.87798C3.16573 8.74202 3.26149 8.62274 3.38 8.52908L11.38 2.21808C11.5565 2.07857 11.775 2.00269 12 2.00269C12.225 2.00269 12.4435 2.07857 12.62 2.21808L20.62 8.52808C20.7386 8.62184 20.8345 8.74128 20.9003 8.87743C20.9661 9.01357 21.0002 9.16287 21 9.31408V20.0001ZM7 12.0001H9C9 12.7957 9.31607 13.5588 9.87868 14.1214C10.4413 14.684 11.2044 15.0001 12 15.0001C12.7956 15.0001 13.5587 14.684 14.1213 14.1214C14.6839 13.5588 15 12.7957 15 12.0001H17C17 13.3262 16.4732 14.5979 15.5355 15.5356C14.5979 16.4733 13.3261 17.0001 12 17.0001C10.6739 17.0001 9.40215 16.4733 8.46447 15.5356C7.52678 14.5979 7 13.3262 7 12.0001Z" fill="#03053D"/>
</g>
<defs>
<clipPath id="clip0_1_88">
<rect width="24" height="24" fill="white"/>
</clipPath>
</defs>
</svg>
