<svg width="132" height="80" viewBox="0 0 132 80" fill="none" xmlns="http://www.w3.org/2000/svg">
<circle cx="40" cy="40" r="40" fill="#3CD27D"/>
<path d="M20.584 52V50.38H20.944C21.832 50.38 22.564 50.296 23.14 50.128C23.716 49.96 24.004 49.612 24.004 49.084V29.356C24.004 28.828 23.716 28.48 23.14 28.312C22.564 28.144 21.832 28.06 20.944 28.06H20.584V26.44H30.736V28.06H30.412C29.98 28.06 29.524 28.072 29.044 28.096C28.564 28.12 28.156 28.156 27.82 28.204C27.508 28.252 27.352 28.324 27.352 28.42V50.02C27.352 50.092 27.508 50.164 27.82 50.236C28.156 50.284 28.564 50.32 29.044 50.344C29.524 50.368 29.98 50.38 30.412 50.38H30.736V52H20.584ZM34.192 52V50.38H34.552C34.984 50.38 35.428 50.368 35.884 50.344C36.34 50.32 36.724 50.284 37.036 50.236C37.348 50.164 37.504 50.092 37.504 50.02L28.504 39.472V38.896L38.008 28.42C37.984 28.324 37.828 28.252 37.54 28.204C37.276 28.156 36.928 28.12 36.496 28.096C36.064 28.072 35.632 28.06 35.2 28.06H34.84V26.44H43.516V28.06H42.976C42.52 28.06 42.112 28.096 41.752 28.168C41.416 28.216 41.116 28.324 40.852 28.492C40.588 28.636 40.324 28.852 40.06 29.14L30.952 39.076V37.492L41.032 49.192C41.32 49.528 41.596 49.792 41.86 49.984C42.148 50.152 42.472 50.26 42.832 50.308C43.216 50.356 43.672 50.38 44.2 50.38H44.596V52H34.192ZM58.4889 40.948L58.4529 42.64C57.2529 42.76 56.1849 42.916 55.2489 43.108C54.3129 43.3 53.4969 43.54 52.8009 43.828C52.1289 44.092 51.5649 44.404 51.1089 44.764C50.6769 45.1 50.3529 45.508 50.1369 45.988C49.9209 46.444 49.8129 46.948 49.8129 47.5C49.8129 48.1 49.9449 48.628 50.2089 49.084C50.4729 49.516 50.8449 49.864 51.3249 50.128C51.8049 50.368 52.3569 50.488 52.9809 50.488C53.8209 50.488 54.5649 50.284 55.2129 49.876C55.8849 49.468 56.4729 48.904 56.9769 48.184C57.5049 47.464 57.9609 46.612 58.3449 45.628L58.4169 47.896C58.0569 48.808 57.5649 49.6 56.9409 50.272C56.3409 50.944 55.6449 51.46 54.8529 51.82C54.0609 52.18 53.1609 52.36 52.1529 52.36C51.1209 52.36 50.1729 52.168 49.3089 51.784C48.4689 51.4 47.7849 50.848 47.2569 50.128C46.7529 49.384 46.5009 48.52 46.5009 47.536C46.5009 46.552 46.7529 45.7 47.2569 44.98C47.7609 44.236 48.5169 43.612 49.5249 43.108C50.5329 42.58 51.7809 42.148 53.2689 41.812C54.7809 41.452 56.5209 41.164 58.4889 40.948ZM57.8409 52V48.184L57.4809 48.112V39.328C57.4809 38.296 57.3369 37.48 57.0489 36.88C56.7849 36.28 56.3889 35.86 55.8609 35.62C55.3329 35.356 54.6729 35.224 53.8809 35.224C52.7049 35.224 51.7329 35.476 50.9649 35.98C50.1969 36.46 49.5849 37.036 49.1289 37.708C49.0809 37.396 49.0929 37.12 49.1649 36.88C49.2609 36.616 49.3809 36.388 49.5249 36.196C49.6689 36.004 49.8369 35.836 50.0289 35.692C50.2449 35.548 50.4729 35.44 50.7129 35.368V39.112H47.6169V35.44C47.9769 35.152 48.4569 34.852 49.0569 34.54C49.6809 34.204 50.4249 33.916 51.2889 33.676C52.1529 33.436 53.1009 33.316 54.1329 33.316C54.9969 33.316 55.8129 33.412 56.5809 33.604C57.3489 33.796 58.0449 34.12 58.6689 34.576C59.2929 35.008 59.7849 35.596 60.1449 36.34C60.5049 37.06 60.6849 37.96 60.6849 39.04V49.156C60.6849 49.492 60.8049 49.756 61.0449 49.948C61.3089 50.14 61.6569 50.272 62.0889 50.344C62.5449 50.416 63.0609 50.452 63.6369 50.452V52H57.8409ZM78.0375 33.424V36.592C77.8695 36.52 77.6655 36.472 77.4255 36.448C77.2095 36.4 76.9815 36.364 76.7415 36.34C76.5015 36.316 76.2615 36.304 76.0215 36.304C75.3975 36.304 74.8455 36.4 74.3655 36.592C73.8855 36.76 73.4535 37.024 73.0695 37.384C72.7095 37.744 72.3735 38.2 72.0615 38.752C71.7495 39.28 71.4255 39.928 71.0895 40.696L71.0175 38.464C71.4015 37.432 71.8695 36.532 72.4215 35.764C72.9735 34.996 73.6095 34.396 74.3295 33.964C75.0495 33.532 75.8775 33.316 76.8135 33.316C77.0535 33.316 77.2815 33.328 77.4975 33.352C77.7375 33.352 77.9175 33.376 78.0375 33.424ZM65.4375 52V50.452H65.5095C66.3735 50.452 67.0815 50.368 67.6335 50.2C68.1855 50.032 68.4615 49.684 68.4615 49.156V36.952C68.4615 36.592 68.3655 36.328 68.1735 36.16C67.9815 35.968 67.6815 35.812 67.2735 35.692C66.8895 35.572 66.3975 35.452 65.7975 35.332L65.4375 35.26V33.676H71.3415V38.932L71.6655 38.608V49.3C71.6655 49.636 71.8335 49.888 72.1695 50.056C72.5055 50.224 72.9015 50.332 73.3575 50.38C73.8135 50.428 74.2215 50.452 74.5815 50.452H75.2295V52H65.4375Z" fill="white"/>
<path d="M90.8231 50.308L90.3551 51.676L88.6271 52.576L81.8231 36.448C81.6791 36.112 81.4871 35.86 81.2471 35.692C81.0071 35.524 80.7071 35.404 80.3471 35.332C80.0111 35.26 79.6031 35.224 79.1231 35.224H79.0871V33.676H87.9791V35.224H87.9071C87.4511 35.224 86.9711 35.236 86.4671 35.26C85.9871 35.284 85.5791 35.32 85.2431 35.368C84.9311 35.392 84.7751 35.452 84.7751 35.548L90.8231 50.308ZM91.1111 51.388C90.4631 52.948 89.8151 54.292 89.1671 55.42C88.5191 56.572 87.8591 57.508 87.1871 58.228C86.5151 58.948 85.7951 59.476 85.0271 59.812C84.2591 60.172 83.4311 60.352 82.5431 60.352C81.9431 60.352 81.4391 60.28 81.0311 60.136C80.6231 60.016 80.2991 59.872 80.0591 59.704V56.824C80.1311 56.848 80.2751 56.908 80.4911 57.004C80.7311 57.124 81.0311 57.232 81.3911 57.328C81.7511 57.424 82.1471 57.472 82.5791 57.472C83.1311 57.472 83.6831 57.376 84.2351 57.184C84.8111 57.016 85.3871 56.68 85.9631 56.176C86.5391 55.672 87.1151 54.928 87.6911 53.944C88.2911 52.96 88.8911 51.676 89.4911 50.092L89.7791 49.408L95.1791 36.052C95.1791 35.86 95.0351 35.716 94.7471 35.62C94.4591 35.5 94.0871 35.404 93.6311 35.332C93.1991 35.26 92.7431 35.224 92.2631 35.224H92.1551V33.676H99.7871V35.224H99.7511C99.3911 35.224 99.0431 35.272 98.7071 35.368C98.3711 35.44 98.0591 35.596 97.7711 35.836C97.5071 36.052 97.2791 36.388 97.0871 36.844L91.1111 51.388ZM113.122 40.948L113.086 42.64C111.886 42.76 110.818 42.916 109.882 43.108C108.946 43.3 108.13 43.54 107.434 43.828C106.762 44.092 106.198 44.404 105.742 44.764C105.31 45.1 104.986 45.508 104.77 45.988C104.554 46.444 104.446 46.948 104.446 47.5C104.446 48.1 104.578 48.628 104.842 49.084C105.106 49.516 105.478 49.864 105.958 50.128C106.438 50.368 106.99 50.488 107.614 50.488C108.454 50.488 109.198 50.284 109.846 49.876C110.518 49.468 111.106 48.904 111.61 48.184C112.138 47.464 112.594 46.612 112.978 45.628L113.05 47.896C112.69 48.808 112.198 49.6 111.574 50.272C110.974 50.944 110.278 51.46 109.486 51.82C108.694 52.18 107.794 52.36 106.786 52.36C105.754 52.36 104.806 52.168 103.942 51.784C103.102 51.4 102.418 50.848 101.89 50.128C101.386 49.384 101.134 48.52 101.134 47.536C101.134 46.552 101.386 45.7 101.89 44.98C102.394 44.236 103.15 43.612 104.158 43.108C105.166 42.58 106.414 42.148 107.902 41.812C109.414 41.452 111.154 41.164 113.122 40.948ZM112.474 52V48.184L112.114 48.112V39.328C112.114 38.296 111.97 37.48 111.682 36.88C111.418 36.28 111.022 35.86 110.494 35.62C109.966 35.356 109.306 35.224 108.514 35.224C107.338 35.224 106.366 35.476 105.598 35.98C104.83 36.46 104.218 37.036 103.762 37.708C103.714 37.396 103.726 37.12 103.798 36.88C103.894 36.616 104.014 36.388 104.158 36.196C104.302 36.004 104.47 35.836 104.662 35.692C104.878 35.548 105.106 35.44 105.346 35.368V39.112H102.25V35.44C102.61 35.152 103.09 34.852 103.69 34.54C104.314 34.204 105.058 33.916 105.922 33.676C106.786 33.436 107.734 33.316 108.766 33.316C109.63 33.316 110.446 33.412 111.214 33.604C111.982 33.796 112.678 34.12 113.302 34.576C113.926 35.008 114.418 35.596 114.778 36.34C115.138 37.06 115.318 37.96 115.318 39.04V49.156C115.318 49.492 115.438 49.756 115.678 49.948C115.942 50.14 116.29 50.272 116.722 50.344C117.178 50.416 117.694 50.452 118.27 50.452V52H112.474Z" fill="#3CD27D"/>
</svg>
